<?xml version="1.0" encoding="utf-8"?>
<!-- Generator: Adobe Illustrator 23.0.1, SVG Export Plug-In . SVG Version: 6.00 Build 0)  -->
<svg version="1.1" id="Layer_1" xmlns="http://www.w3.org/2000/svg" xmlns:xlink="http://www.w3.org/1999/xlink" x="0px" y="0px"
	 viewBox="0 0 100 100" style="enable-background:new 0 0 100 100;" xml:space="preserve">
<style type="text/css">
	.st0{fill:#FFFFFF;}
	.st1{fill:#76B900;}
</style>
<g>
	<path d="M96.1,100L71.5,72.7H16v-60h80.1V100z M19.8,68.9h53.4l19.1,21.2V16.6H19.8V68.9z"/>
	<g>
		<polygon class="st0" points="5.8,82.3 27.6,58.1 82.1,58.1 82.1,1.9 5.8,1.9 		"/>
		<path class="st1" d="M3.9,87.2V0H84v60H28.5L3.9,87.2z M7.6,3.8v73.6l19.1-21.2h53.4V3.8H7.6z"/>
	</g>
	<g>
		<path class="st1" d="M51.2,27.5L47,33.6c-0.6,0.9-0.9,2.2-0.9,3v2h-3.7v-2.1c0-2,0.5-3.3,1.6-4.8l4.2-6c1-1.4,1.7-2.6,1.7-4.4
			c0-3.4-2.5-6.1-5.9-6.1c-3.6,0-6,2.9-6,6.1h-3.7c0-5.2,4.1-9.4,9.7-9.4c5.4,0,9.6,3.9,9.6,9.4C53.6,23.7,52.6,25.6,51.2,27.5z
			 M42,48.9v-4.3h4.4v4.3H42z"/>
	</g>
</g>
</svg>
