<?xml version="1.0" encoding="utf-8"?>
<!-- Generator: Adobe Illustrator 23.0.1, SVG Export Plug-In . SVG Version: 6.00 Build 0)  -->
<svg version="1.1" id="Layer_1" xmlns="http://www.w3.org/2000/svg" xmlns:xlink="http://www.w3.org/1999/xlink" x="0px" y="0px"
	 viewBox="0 0 100 100" style="enable-background:new 0 0 100 100;" xml:space="preserve">
<style type="text/css">
	.st0{fill:#76B900;}
	.st1{fill:#1C1C1A;}
</style>
<path class="st0" d="M92.4,62.1h2.5v-19h-2.5v-1h3.6v21.1h-3.6V62.1z"/>
<path class="st0" d="M45.4,63.2h-3.6V42.1h3.6v1h-2.5v19h2.5V63.2z"/>
<polygon class="st0" points="73.8,40.5 76.3,36.8 76.2,41.3 80.5,39.8 77.7,43.4 82.1,44.7 77.7,46 80.5,49.6 76.2,48.1 74.8,50.6 
	72.8,50.6 71.3,48.1 67,49.6 69.8,46 65.4,44.7 69.8,43.4 67,39.8 71.3,41.3 71.2,36.8 "/>
<polygon class="st1" points="73.7,48 71.9,48.8 72.1,47.6 73.7,46.2 75.4,47.6 75.6,48.8 73.7,48 "/>
<g>
	<path class="st1" d="M21.2,62.2c-0.7,0.7-1.6,1-2.5,1c-1,0-1.8-0.3-2.4-1c-0.9-0.9-0.9-1.9-0.9-3.7c0-1.8,0-2.8,0.9-3.7
		c0.6-0.6,1.4-1,2.4-1c1.9,0,3.1,1.3,3.3,2.8h-1.4c-0.2-1-0.9-1.6-1.9-1.6c-0.5,0-1,0.2-1.4,0.6c-0.5,0.5-0.6,1-0.6,2.8
		c0,1.8,0.1,2.4,0.6,2.9c0.3,0.3,0.8,0.6,1.4,0.6c0.6,0,1.1-0.2,1.5-0.6c0.3-0.4,0.5-0.8,0.5-1.4v-0.5h-2v-1.2H22v1.4
		C22,60.8,21.8,61.5,21.2,62.2z"/>
	<path class="st1" d="M27.4,59.5h-2.1v3.6h-1.4V54h3.5c1.8,0,2.9,1.2,2.9,2.8C30.3,58.3,29.2,59.5,27.4,59.5z M27.3,55.2h-2v3h2
		c1,0,1.6-0.6,1.6-1.5C28.9,55.8,28.3,55.2,27.3,55.2z"/>
	<path class="st1" d="M34.9,63.2c-1.9,0-3.3-1.3-3.3-3.2V54H33v6c0,1.2,0.7,2,1.9,2s1.9-0.8,1.9-2v-6h1.4V60
		C38.2,61.9,36.8,63.2,34.9,63.2z"/>
</g>
<g>
	<path class="st1" d="M53.8,57.3c-0.8,0.8-1.8,1.2-3,1.2c-1.1,0-2.1-0.4-2.9-1.2c-0.5-0.5-0.8-1-0.9-1.6c-0.1-0.6-0.2-1.5-0.2-2.7
		c0-1.2,0.1-2.1,0.2-2.7c0.1-0.6,0.4-1.1,0.9-1.6c0.8-0.8,1.7-1.2,2.9-1.2c2.4,0,3.7,1.6,4,3.4h-2.1c-0.3-1-0.9-1.6-1.9-1.6
		c-0.6,0-1,0.2-1.3,0.6c-0.4,0.5-0.5,0.9-0.5,3c0,2.1,0.1,2.5,0.5,3c0.3,0.4,0.8,0.6,1.3,0.6c0.6,0,1.1-0.2,1.5-0.6
		c0.3-0.4,0.5-0.8,0.5-1.4v-0.4h-2v-1.7h4.1V54C54.8,55.6,54.5,56.5,53.8,57.3z"/>
	<path class="st1" d="M57.9,55.1c0,1,0.6,1.7,1.7,1.7c0.9,0,1.3-0.2,1.8-0.7l1.2,1.2c-0.8,0.8-1.6,1.2-3,1.2c-1.9,0-3.6-0.8-3.6-4
		c0-2.6,1.4-4,3.4-4c2.2,0,3.4,1.6,3.4,3.7v0.9H57.9z M60.7,52.9c-0.2-0.5-0.6-0.8-1.3-0.8c-0.7,0-1.1,0.3-1.3,0.8
		c-0.1,0.3-0.2,0.5-0.2,0.8h3C60.9,53.4,60.8,53.2,60.7,52.9z"/>
	<path class="st1" d="M69,58.4v-4.7c0-1.1-0.7-1.4-1.3-1.4c-0.6,0-1.3,0.4-1.3,1.4v4.7h-2v-7.8h1.9v0.7c0.5-0.5,1.2-0.8,2-0.8
		c0.8,0,1.4,0.3,1.9,0.7c0.6,0.6,0.8,1.4,0.8,2.2v5H69z"/>
	<path class="st1" d="M72.8,58.4v-7.8h2v7.8H72.8z"/>
	<path class="st1" d="M81.2,58.4v-0.7c-0.5,0.5-1.2,0.8-2,0.8c-0.8,0-1.4-0.3-1.9-0.7c-0.6-0.6-0.8-1.4-0.8-2.2v-5h2v4.7
		c0,1.1,0.7,1.4,1.3,1.4c0.6,0,1.3-0.4,1.3-1.4v-4.7h2v7.8H81.2z"/>
	<path class="st1" d="M87.7,58.5c-1.2,0-2.3-0.1-3.3-1.1l1.3-1.3c0.6,0.6,1.5,0.7,2.1,0.7c0.7,0,1.4-0.2,1.4-0.8
		c0-0.4-0.2-0.7-0.8-0.7L87,55.2c-1.4-0.1-2.3-0.8-2.3-2.2c0-1.6,1.4-2.5,3-2.5c1.2,0,2.2,0.2,3,0.9l-1.2,1.2
		c-0.5-0.4-1.1-0.5-1.8-0.5c-0.8,0-1.1,0.4-1.1,0.8c0,0.3,0.1,0.6,0.8,0.7l1.2,0.1c1.6,0.2,2.3,1,2.3,2.3
		C91,57.7,89.5,58.5,87.7,58.5z"/>
</g>
<g>
	<path class="st1" d="M5.6,51.1l-4.2-6.4v6.4H0V42h1.3l4.2,6.4V42h1.4v9.1H5.6z"/>
	<path class="st1" d="M12.1,51.1H11L8,42h1.4l2.1,6.6l2.1-6.6h1.5L12.1,51.1z"/>
	<path class="st1" d="M16.3,51.1V42h1.4v9.1H16.3z"/>
	<path class="st1" d="M25.2,50.3c-0.6,0.6-1.4,0.9-2.4,0.9h-3.2V42h3.2c0.9,0,1.8,0.3,2.4,0.9c1,1,0.9,2.3,0.9,3.6
		C26.1,47.8,26.2,49.3,25.2,50.3z M24.3,43.9c-0.4-0.4-0.9-0.6-1.5-0.6H21v6.6h1.7c0.7,0,1.2-0.2,1.5-0.6c0.5-0.5,0.5-1.5,0.5-2.8
		C24.8,45.3,24.7,44.4,24.3,43.9z"/>
	<path class="st1" d="M27.8,51.1V42h1.4v9.1H27.8z"/>
	<path class="st1" d="M36.7,51.1l-0.6-1.8h-3.6l-0.6,1.8h-1.5l3.3-9.1h1.1l3.3,9.1H36.7z M34.3,44.1l-1.4,4h2.8L34.3,44.1z"/>
</g>
<g>
	<path class="st1" d="M98,42.4v1.3h-0.2v-1.3h-0.4v-0.2h1v0.2H98z M99.8,43.7v-1.1l-0.4,0.7h-0.2l-0.4-0.7v1.1h-0.2v-1.5h0.2
		l0.5,0.9l0.5-0.9h0.2v1.5H99.8z"/>
</g>
<g>
	<path class="st1" d="M37.5,43.4c-0.4,0-0.7-0.3-0.7-0.7c0-0.4,0.3-0.7,0.7-0.7s0.7,0.3,0.7,0.7C38.1,43.1,37.8,43.4,37.5,43.4z
		 M37.5,42.1c-0.3,0-0.6,0.3-0.6,0.6c0,0.3,0.3,0.6,0.6,0.6c0.3,0,0.6-0.3,0.6-0.6C38,42.4,37.8,42.1,37.5,42.1z M37.6,43.1
		l-0.2-0.3h-0.1v0.3h-0.1v-0.7h0.3c0.1,0,0.2,0.1,0.2,0.2c0,0.1-0.1,0.2-0.2,0.2l0.2,0.3H37.6z M37.5,42.4h-0.1v0.3h0.1
		c0.1,0,0.1-0.1,0.1-0.1C37.6,42.5,37.6,42.4,37.5,42.4z"/>
</g>
</svg>
