<?xml version="1.0" encoding="utf-8"?>
<!-- Generator: Adobe Illustrator 23.0.6, SVG Export Plug-In . SVG Version: 6.00 Build 0)  -->
<svg version="1.1" id="Layer_1" xmlns="http://www.w3.org/2000/svg" xmlns:xlink="http://www.w3.org/1999/xlink" x="0px" y="0px"
	 viewBox="0 0 40 40" style="enable-background:new 0 0 50 50;" xml:space="preserve" width="46" height="50">
<style type="text/css">
	.st0{fill:#747474;}
</style>
<g>
	<path class="st0" d="M31.3,40.4H18.7c-4.8,0-8.7-3.9-8.7-8.7V18.3c0-4.8,3.9-8.7,8.7-8.7h12.5c4.8,0,8.7,3.9,8.7,8.7v13.4
		C40,36.5,36.1,40.4,31.3,40.4z M31.3,38.1c1.7,0,3.3-0.7,4.5-1.9c1.2-1.2,1.9-2.8,1.9-4.5V18.3c0-1.7-0.7-3.3-1.9-4.5
		c-1.2-1.2-2.8-1.9-4.5-1.9H18.7c-1.7,0-3.3,0.7-4.5,1.9s-1.9,2.8-1.9,4.5v13.4c0,1.7,0.7,3.3,1.9,4.5s2.8,1.9,4.5,1.9H31.3z"/>
	<path class="st0" d="M33.3,24.9c0,4.6-3.7,8.3-8.3,8.3s-8.3-3.7-8.3-8.3s3.7-8.3,8.3-8.3S33.3,20.3,33.3,24.9z M25,19.5
		c-3,0-5.4,2.4-5.4,5.4s2.4,5.4,5.4,5.4s5.4-2.4,5.4-5.4S28,19.5,25,19.5z"/>
	<circle class="st0" cx="33.4" cy="16.5" r="2"/>
</g>
</svg>
