<?xml version="1.0" encoding="utf-8"?>
<!-- Generator: Adobe Illustrator 23.0.6, SVG Export Plug-In . SVG Version: 6.00 Build 0)  -->
<svg version="1.1" id="Layer_1" xmlns="http://www.w3.org/2000/svg" xmlns:xlink="http://www.w3.org/1999/xlink" x="0px" y="0px"
	 viewBox="0 0 50 50" style="enable-background:new 0 0 50 50;" xml:space="preserve" width="46" height="50">
<style type="text/css">
	.st0{fill:#747474;}
</style>
<g>
	<path class="st0" d="M10.5,20h6.2v20h-6.2V20z M13.6,10c2,0,3.6,1.6,3.6,3.6c0,2-1.6,3.6-3.6,3.6c-2,0-3.6-1.6-3.6-3.6
		C10,11.6,11.6,10,13.6,10"/>
	<path class="st0" d="M20.6,20h6v2.7h0.1c0.8-1.6,2.9-3.2,5.9-3.2c6.3,0,7.5,4.2,7.5,9.5v11h-6.2v-9.7c0-2.3,0-5.3-3.2-5.3
		c-3.2,0-3.7,2.5-3.7,5.1V40h-6.2V20z"/>
</g>
</svg>
